{"title":"Wallander The Man Who Smiled.2010.DvDRip.Feel-Free","uid":5846253,"size":1429640736,"categoryP":"video","categoryS":"movies","magnet":"?xt=urn:btih:d599379625b07fdf633e5998af8a07e2b64bd054&amp;dn=Wallander+The+Man+Who+Smiled.2010.DvDRip.Feel-Free&amp;tr=udp%3A%2F%2Ftracker.openbittorrent.com%3A80&amp;tr=udp%3A%2F%2Fopen.demonii.com%3A1337&amp;tr=udp%3A%2F%2Ftracker.coppersurfer.tk%3A6969&amp;tr=udp%3A%2F%2Fexodus.desync.com%3A6969","seeders":0,"leechers":0,"uploader":"neon","files":-1,"time":1285191772,"description":"\nGenre:Crime | Thriller\nLanguage: English\n &lt;a href=&quot; http://www.imdb.com/title/tt1581667/&quot; rel=&quot;nofollow&quot; target=&quot;_NEW&quot;&gt; http://www.imdb.com/title/tt1581667/&lt;/a&gt;\n\n\nGeneral\nComplete name :Wallander.The.Man.Who.Smiled.2010.DvDRip.Feel-Free\nFormat : AVI\nFormat/Info : Audio Video Interleave\nFile size : 1.33 GiB\nDuration : 1h 28mn\nOverall bit rate : 2 149 Kbps\nVideo #0\nID : 0\nFormat : MPEG-4 Visual\nFormat profile : AdvancedSimple@L5\nFormat settings, BVOP : Yes\nFormat settings, QPel : No\nFormat settings, GMC : No warppoints\nFormat settings, Matrix : Default (H.263)\nMuxing mode : Packed bitstream\nCodec ID : XVID\nCodec ID/Hint : XviD\nDuration : 1h 28mn\nBit rate : 1 691 Kbps\nWidth : 720 pixels\nHeight : 384 pixels\nDisplay aspect ratio : 1.875\nFrame rate : 25.000 fps\nResolution : 24 bits\nColorimetry : 4:2:0\nScan type : Progressive\nBits/(Pixel*Frame) : 0.245\nStream size : 1.05 GiB (79%)\nWriting library : XviD 1.2.1 (UTC 2008-12-04)\nAudio #1\nID : 1\nFormat : AC-3\nFormat/Info : Audio Coding 3\nCodec ID : 2000\nDuration : 1h 28mn\nBit rate mode : Constant\nBit rate : 448 Kbps\nChannel(s) : 6 channels\nChannel positions : Front: L C R, Surround: L R, LFE\nSampling rate : 48.0 KHz\nStream size : 284 MiB (21%)\nAlignment : Split accross interleaves\nInterleave, duration : 40 ms (1.00 video frame)\nInterleave, preload duration : 500 ms\n\nPlot\nLawyer Sten Tostensson tells Wallander he believes his old father's death in a car crash was homicide","torrent":{"xt":"urn:btih:d599379625b07fdf633e5998af8a07e2b64bd054","amp;dn":"Wallander+The+Man+Who+Smiled.2010.DvDRip.Feel-Free","amp;tr":["udp%3A%2F%2Ftracker.openbittorrent.com%3A80","udp%3A%2F%2Fopen.demonii.com%3A1337","udp%3A%2F%2Ftracker.coppersurfer.tk%3A6969","udp%3A%2F%2Fexodus.desync.com%3A6969"],"infoHash":"d599379625b07fdf633e5998af8a07e2b64bd054","infoHashBuffer":{"type":"Buffer","data":[213,153,55,150,37,176,127,223,99,62,89,152,175,138,7,226,182,75,208,84]},"announce":[],"urlList":[]}}